<mxfile host="app.diagrams.net" agent="Mozilla/5.0 (Windows NT 10.0; Win64; x64; rv:131.0) Gecko/20100101 Firefox/131.0" version="24.7.16">
  <diagram name="Page-1" id="wZxQySBUEASw0iIobv-u">
    <mxGraphModel dx="1434" dy="754" grid="1" gridSize="10" guides="1" tooltips="1" connect="1" arrows="1" fold="1" page="1" pageScale="1" pageWidth="850" pageHeight="1100" math="0" shadow="0">
      <root>
        <mxCell id="0" />
        <mxCell id="1" parent="0" />
        <mxCell id="z_wa0ut1sptJ0QLQxMaO-2" value="" style="image;points=[];aspect=fixed;html=1;align=center;shadow=0;dashed=0;image=img/lib/allied_telesis/switch/Switch_24_port_L2.svg;" vertex="1" parent="1">
          <mxGeometry x="268" y="357" width="74.4" height="51" as="geometry" />
        </mxCell>
        <mxCell id="z_wa0ut1sptJ0QLQxMaO-3" value="&lt;div&gt;k8s controller&lt;/div&gt;&lt;div&gt;192.168.1.5&lt;br&gt;&lt;/div&gt;" style="fontColor=#0066CC;verticalAlign=top;verticalLabelPosition=bottom;labelPosition=center;align=center;html=1;outlineConnect=0;fillColor=#CCCCCC;strokeColor=#6881B3;gradientColor=none;gradientDirection=north;strokeWidth=2;shape=mxgraph.networks.pc;" vertex="1" parent="1">
          <mxGeometry x="158" y="500" width="50" height="40" as="geometry" />
        </mxCell>
        <mxCell id="z_wa0ut1sptJ0QLQxMaO-4" value="&lt;div&gt;k8s worker&lt;/div&gt;&lt;div&gt;192.168.1.6&lt;/div&gt;" style="fontColor=#0066CC;verticalAlign=top;verticalLabelPosition=bottom;labelPosition=center;align=center;html=1;outlineConnect=0;fillColor=#CCCCCC;strokeColor=#6881B3;gradientColor=none;gradientDirection=north;strokeWidth=2;shape=mxgraph.networks.pc;" vertex="1" parent="1">
          <mxGeometry x="278" y="500" width="50" height="40" as="geometry" />
        </mxCell>
        <mxCell id="z_wa0ut1sptJ0QLQxMaO-5" value="&lt;div&gt;k8s worker&lt;/div&gt;&lt;div&gt;192.168.1.7&lt;/div&gt;" style="fontColor=#0066CC;verticalAlign=top;verticalLabelPosition=bottom;labelPosition=center;align=center;html=1;outlineConnect=0;fillColor=#CCCCCC;strokeColor=#6881B3;gradientColor=none;gradientDirection=north;strokeWidth=2;shape=mxgraph.networks.pc;" vertex="1" parent="1">
          <mxGeometry x="388" y="500" width="50" height="40" as="geometry" />
        </mxCell>
        <mxCell id="z_wa0ut1sptJ0QLQxMaO-6" value="" style="endArrow=classic;startArrow=classic;html=1;rounded=0;exitX=0.5;exitY=0.07;exitDx=0;exitDy=0;exitPerimeter=0;entryX=-0.04;entryY=0.51;entryDx=0;entryDy=0;entryPerimeter=0;" edge="1" parent="1" source="z_wa0ut1sptJ0QLQxMaO-3" target="z_wa0ut1sptJ0QLQxMaO-2">
          <mxGeometry width="50" height="50" relative="1" as="geometry">
            <mxPoint x="328" y="410" as="sourcePoint" />
            <mxPoint x="378" y="360" as="targetPoint" />
          </mxGeometry>
        </mxCell>
        <mxCell id="z_wa0ut1sptJ0QLQxMaO-7" value="" style="endArrow=classic;startArrow=classic;html=1;rounded=0;exitX=0.5;exitY=0.07;exitDx=0;exitDy=0;exitPerimeter=0;entryX=0.954;entryY=0.922;entryDx=0;entryDy=0;entryPerimeter=0;" edge="1" parent="1" source="z_wa0ut1sptJ0QLQxMaO-5" target="z_wa0ut1sptJ0QLQxMaO-2">
          <mxGeometry width="50" height="50" relative="1" as="geometry">
            <mxPoint x="328" y="410" as="sourcePoint" />
            <mxPoint x="378" y="360" as="targetPoint" />
          </mxGeometry>
        </mxCell>
        <mxCell id="z_wa0ut1sptJ0QLQxMaO-8" value="" style="endArrow=classic;startArrow=classic;html=1;rounded=0;exitX=0.5;exitY=0.07;exitDx=0;exitDy=0;exitPerimeter=0;entryX=0.47;entryY=0.922;entryDx=0;entryDy=0;entryPerimeter=0;" edge="1" parent="1" source="z_wa0ut1sptJ0QLQxMaO-4" target="z_wa0ut1sptJ0QLQxMaO-2">
          <mxGeometry width="50" height="50" relative="1" as="geometry">
            <mxPoint x="328" y="410" as="sourcePoint" />
            <mxPoint x="378" y="360" as="targetPoint" />
          </mxGeometry>
        </mxCell>
        <mxCell id="z_wa0ut1sptJ0QLQxMaO-9" value="&lt;div&gt;corp network&lt;/div&gt;&lt;div&gt;192.168.1.1&lt;br&gt;&lt;/div&gt;" style="image;html=1;image=img/lib/clip_art/networking/Router_Icon_128x128.png" vertex="1" parent="1">
          <mxGeometry x="416" y="241" width="80" height="80" as="geometry" />
        </mxCell>
        <mxCell id="z_wa0ut1sptJ0QLQxMaO-10" value="&lt;div&gt;public network&lt;/div&gt;&lt;div&gt;192.168.1.3&lt;br&gt;&lt;/div&gt;" style="image;html=1;image=img/lib/clip_art/networking/Router_Icon_128x128.png" vertex="1" parent="1">
          <mxGeometry x="125" y="241" width="80" height="80" as="geometry" />
        </mxCell>
        <mxCell id="z_wa0ut1sptJ0QLQxMaO-11" value="" style="endArrow=classic;startArrow=classic;html=1;rounded=0;" edge="1" parent="1" source="z_wa0ut1sptJ0QLQxMaO-15" target="z_wa0ut1sptJ0QLQxMaO-22">
          <mxGeometry width="50" height="50" relative="1" as="geometry">
            <mxPoint x="328" y="467" as="sourcePoint" />
            <mxPoint x="378" y="417" as="targetPoint" />
          </mxGeometry>
        </mxCell>
        <mxCell id="z_wa0ut1sptJ0QLQxMaO-12" value="" style="endArrow=classic;startArrow=classic;html=1;rounded=0;entryX=1.013;entryY=0.913;entryDx=0;entryDy=0;entryPerimeter=0;exitX=-0.04;exitY=0.098;exitDx=0;exitDy=0;exitPerimeter=0;" edge="1" parent="1" source="z_wa0ut1sptJ0QLQxMaO-2" target="z_wa0ut1sptJ0QLQxMaO-10">
          <mxGeometry width="50" height="50" relative="1" as="geometry">
            <mxPoint x="328" y="467" as="sourcePoint" />
            <mxPoint x="378" y="417" as="targetPoint" />
          </mxGeometry>
        </mxCell>
        <mxCell id="z_wa0ut1sptJ0QLQxMaO-13" value="&lt;font style=&quot;font-size: 19px;&quot; face=&quot;Times New Roman&quot;&gt;k8s cluster&lt;/font&gt;" style="rounded=1;whiteSpace=wrap;html=1;dashed=1;dashPattern=8 8;fillColor=none;labelPosition=center;verticalLabelPosition=bottom;align=center;verticalAlign=top;" vertex="1" parent="1">
          <mxGeometry x="138" y="479" width="320" height="110" as="geometry" />
        </mxCell>
        <mxCell id="z_wa0ut1sptJ0QLQxMaO-15" value="10.91.250.0/24" style="ellipse;shape=cloud;whiteSpace=wrap;html=1;fillColor=none;" vertex="1" parent="1">
          <mxGeometry x="384" y="87" width="120" height="80" as="geometry" />
        </mxCell>
        <mxCell id="z_wa0ut1sptJ0QLQxMaO-16" value="" style="endArrow=none;html=1;rounded=0;exitX=0.5;exitY=0;exitDx=0;exitDy=0;" edge="1" parent="1" source="z_wa0ut1sptJ0QLQxMaO-9" target="z_wa0ut1sptJ0QLQxMaO-15">
          <mxGeometry width="50" height="50" relative="1" as="geometry">
            <mxPoint x="518" y="217" as="sourcePoint" />
            <mxPoint x="378" y="417" as="targetPoint" />
          </mxGeometry>
        </mxCell>
        <mxCell id="z_wa0ut1sptJ0QLQxMaO-17" value="220.168.30.0/24" style="ellipse;shape=cloud;whiteSpace=wrap;html=1;fillColor=none;" vertex="1" parent="1">
          <mxGeometry x="156" y="89" width="120" height="80" as="geometry" />
        </mxCell>
        <mxCell id="z_wa0ut1sptJ0QLQxMaO-18" value="" style="endArrow=none;html=1;rounded=0;entryX=0.55;entryY=0.95;entryDx=0;entryDy=0;entryPerimeter=0;exitX=0.388;exitY=-0.012;exitDx=0;exitDy=0;exitPerimeter=0;" edge="1" parent="1" source="z_wa0ut1sptJ0QLQxMaO-10" target="z_wa0ut1sptJ0QLQxMaO-17">
          <mxGeometry width="50" height="50" relative="1" as="geometry">
            <mxPoint x="355" y="467" as="sourcePoint" />
            <mxPoint x="151" y="163" as="targetPoint" />
          </mxGeometry>
        </mxCell>
        <mxCell id="z_wa0ut1sptJ0QLQxMaO-19" value="&lt;div&gt;LoadBalancer VM&lt;/div&gt;&lt;div&gt;&lt;br&gt;&lt;/div&gt;&lt;div&gt;balance traffic to k8s&lt;/div&gt;&lt;div&gt;worker machine&lt;br&gt;&lt;/div&gt;" style="image;html=1;image=img/lib/clip_art/computers/Virtual_Machine_128x128.png;labelPosition=right;verticalLabelPosition=middle;align=left;verticalAlign=middle;" vertex="1" parent="1">
          <mxGeometry x="564" y="445" width="80" height="80" as="geometry" />
        </mxCell>
        <mxCell id="z_wa0ut1sptJ0QLQxMaO-20" value="10.91.250.128" style="whiteSpace=wrap;html=1;strokeColor=none;fillColor=none;" vertex="1" parent="1">
          <mxGeometry x="454" y="232" width="85" height="30" as="geometry" />
        </mxCell>
        <mxCell id="z_wa0ut1sptJ0QLQxMaO-21" value="220.168.30.5" style="whiteSpace=wrap;html=1;strokeColor=none;fillColor=none;" vertex="1" parent="1">
          <mxGeometry x="154" y="230" width="87" height="33" as="geometry" />
        </mxCell>
        <mxCell id="z_wa0ut1sptJ0QLQxMaO-22" value="corporate client PC" style="shape=mxgraph.cisco.computers_and_peripherals.pc;html=1;pointerEvents=1;dashed=0;fillColor=#036897;strokeColor=#ffffff;strokeWidth=2;verticalLabelPosition=bottom;verticalAlign=top;align=center;outlineConnect=0;" vertex="1" parent="1">
          <mxGeometry x="561" y="23" width="78" height="70" as="geometry" />
        </mxCell>
        <mxCell id="z_wa0ut1sptJ0QLQxMaO-23" value="Internet client PC" style="shape=mxgraph.cisco.computers_and_peripherals.pc;html=1;pointerEvents=1;dashed=0;fillColor=#036897;strokeColor=#ffffff;strokeWidth=2;verticalLabelPosition=bottom;verticalAlign=top;align=center;outlineConnect=0;" vertex="1" parent="1">
          <mxGeometry x="40" y="36" width="78" height="70" as="geometry" />
        </mxCell>
        <mxCell id="z_wa0ut1sptJ0QLQxMaO-24" value="" style="endArrow=classic;startArrow=classic;html=1;rounded=0;exitX=0.524;exitY=0.039;exitDx=0;exitDy=0;exitPerimeter=0;" edge="1" parent="1" source="z_wa0ut1sptJ0QLQxMaO-2" target="z_wa0ut1sptJ0QLQxMaO-9">
          <mxGeometry width="50" height="50" relative="1" as="geometry">
            <mxPoint x="328" y="320" as="sourcePoint" />
            <mxPoint x="378" y="270" as="targetPoint" />
          </mxGeometry>
        </mxCell>
        <mxCell id="z_wa0ut1sptJ0QLQxMaO-25" value="" style="endArrow=classic;startArrow=classic;html=1;rounded=0;entryX=0;entryY=0.5;entryDx=0;entryDy=0;exitX=0.995;exitY=0.608;exitDx=0;exitDy=0;exitPerimeter=0;" edge="1" parent="1" source="z_wa0ut1sptJ0QLQxMaO-2" target="z_wa0ut1sptJ0QLQxMaO-19">
          <mxGeometry width="50" height="50" relative="1" as="geometry">
            <mxPoint x="328" y="320" as="sourcePoint" />
            <mxPoint x="378" y="270" as="targetPoint" />
          </mxGeometry>
        </mxCell>
        <mxCell id="z_wa0ut1sptJ0QLQxMaO-26" value="" style="endArrow=classic;startArrow=classic;html=1;rounded=0;entryX=0.86;entryY=0.85;entryDx=0;entryDy=0;entryPerimeter=0;exitX=0.07;exitY=0.4;exitDx=0;exitDy=0;exitPerimeter=0;" edge="1" parent="1" source="z_wa0ut1sptJ0QLQxMaO-17" target="z_wa0ut1sptJ0QLQxMaO-23">
          <mxGeometry width="50" height="50" relative="1" as="geometry">
            <mxPoint x="328" y="320" as="sourcePoint" />
            <mxPoint x="378" y="270" as="targetPoint" />
          </mxGeometry>
        </mxCell>
        <mxCell id="z_wa0ut1sptJ0QLQxMaO-27" value="192.168.1. 200" style="whiteSpace=wrap;html=1;strokeColor=none;fillColor=none;" vertex="1" parent="1">
          <mxGeometry x="475" y="479" width="95" height="30" as="geometry" />
        </mxCell>
        <mxCell id="z_wa0ut1sptJ0QLQxMaO-30" value="&lt;div&gt;floating IP&lt;/div&gt;&lt;div&gt;10.91.250.100&lt;/div&gt;&lt;div&gt;220.168.30.10&lt;br&gt;&lt;/div&gt;" style="whiteSpace=wrap;html=1;strokeColor=none;fillColor=none;" vertex="1" parent="1">
          <mxGeometry x="473" y="408" width="120" height="60" as="geometry" />
        </mxCell>
        <mxCell id="z_wa0ut1sptJ0QLQxMaO-33" value="&lt;div align=&quot;center&quot;&gt;REQ&lt;br&gt;&lt;/div&gt;&lt;div align=&quot;left&quot;&gt;src: 10.91.250.138:12345&lt;/div&gt;&lt;div align=&quot;left&quot;&gt;dst: 10.91.250.100:80&lt;br&gt;&lt;/div&gt;" style="rounded=0;whiteSpace=wrap;html=1;align=left;strokeColor=#FF0000;" vertex="1" parent="1">
          <mxGeometry x="529" y="115" width="150" height="45" as="geometry" />
        </mxCell>
        <mxCell id="z_wa0ut1sptJ0QLQxMaO-34" value="&lt;div align=&quot;center&quot;&gt;REQ&lt;/div&gt;&lt;div align=&quot;left&quot;&gt;src: 10.91.250.138:12345&lt;/div&gt;&lt;div align=&quot;left&quot;&gt;dst: &lt;b&gt;&lt;font color=&quot;#ff0000&quot;&gt;192.168.1.200:80&lt;br&gt;&lt;/font&gt;&lt;/b&gt;&lt;/div&gt;" style="rounded=0;whiteSpace=wrap;html=1;align=left;strokeColor=#FF0000;" vertex="1" parent="1">
          <mxGeometry x="519" y="257" width="150" height="45" as="geometry" />
        </mxCell>
        <mxCell id="z_wa0ut1sptJ0QLQxMaO-35" value="&lt;div align=&quot;center&quot;&gt;REQ&lt;br&gt;&lt;/div&gt;&lt;div align=&quot;left&quot;&gt;src: 10.91.250.138:12345&lt;/div&gt;&lt;div align=&quot;left&quot;&gt;dst: &lt;b&gt;&lt;font color=&quot;#ff0000&quot;&gt;192.168.1.6:8080&lt;/font&gt;&lt;/b&gt;&lt;br&gt;&lt;/div&gt;" style="rounded=0;whiteSpace=wrap;html=1;align=left;strokeColor=#FF0000;" vertex="1" parent="1">
          <mxGeometry x="521" y="519" width="150" height="45" as="geometry" />
        </mxCell>
        <mxCell id="z_wa0ut1sptJ0QLQxMaO-36" value="&lt;div align=&quot;center&quot;&gt;RESP&lt;/div&gt;&lt;div align=&quot;center&quot;&gt;&lt;b&gt;&lt;font color=&quot;#ff0000&quot;&gt;doesn&#39;t go thru LB VM&lt;/font&gt;&lt;/b&gt;&lt;br&gt;&lt;/div&gt;&lt;div align=&quot;left&quot;&gt;src: 192.168.1.6:8080&lt;/div&gt;&lt;div align=&quot;left&quot;&gt;dst: 10.91.250.138:12345&lt;br&gt;&lt;/div&gt;" style="rounded=0;whiteSpace=wrap;html=1;align=left;strokeColor=#FF0000;" vertex="1" parent="1">
          <mxGeometry x="234" y="620" width="150" height="70" as="geometry" />
        </mxCell>
        <mxCell id="z_wa0ut1sptJ0QLQxMaO-38" value="&lt;div align=&quot;center&quot;&gt;RESP&lt;/div&gt;&lt;div align=&quot;left&quot;&gt;src: &lt;b&gt;&lt;font color=&quot;#ff0000&quot;&gt;10.91.250.128: port&lt;/font&gt;&lt;/b&gt;&lt;br&gt;&lt;/div&gt;&lt;div align=&quot;left&quot;&gt;dst: 10.91.250.138:12345&lt;br&gt;&lt;/div&gt;" style="rounded=0;whiteSpace=wrap;html=1;align=left;strokeColor=#FF0000;" vertex="1" parent="1">
          <mxGeometry x="260" y="244" width="150" height="54" as="geometry" />
        </mxCell>
        <mxCell id="z_wa0ut1sptJ0QLQxMaO-39" value="" style="endArrow=classic;startArrow=none;html=1;rounded=0;entryX=0.46;entryY=0.056;entryDx=0;entryDy=0;entryPerimeter=0;fontColor=#FF0000;fillColor=#d5e8d4;strokeColor=#82b366;dashed=1;dashPattern=8 8;startFill=0;" edge="1" parent="1" target="z_wa0ut1sptJ0QLQxMaO-38">
          <mxGeometry width="50" height="50" relative="1" as="geometry">
            <mxPoint x="298" y="660" as="sourcePoint" />
            <mxPoint x="348" y="610" as="targetPoint" />
          </mxGeometry>
        </mxCell>
        <mxCell id="z_wa0ut1sptJ0QLQxMaO-40" value="" style="endArrow=classic;startArrow=none;html=1;rounded=0;fontColor=#FF0000;fillColor=#d5e8d4;strokeColor=#82b366;dashed=1;dashPattern=8 8;startFill=0;" edge="1" parent="1" source="z_wa0ut1sptJ0QLQxMaO-38">
          <mxGeometry width="50" height="50" relative="1" as="geometry">
            <mxPoint x="308" y="670" as="sourcePoint" />
            <mxPoint x="558" y="30" as="targetPoint" />
          </mxGeometry>
        </mxCell>
        <mxCell id="z_wa0ut1sptJ0QLQxMaO-46" value="" style="endArrow=classic;html=1;rounded=0;fillColor=#f8cecc;strokeColor=#b85450;dashed=1;" edge="1" parent="1" source="z_wa0ut1sptJ0QLQxMaO-33" target="z_wa0ut1sptJ0QLQxMaO-34">
          <mxGeometry width="50" height="50" relative="1" as="geometry">
            <mxPoint x="708" y="232" as="sourcePoint" />
            <mxPoint x="758" y="182" as="targetPoint" />
          </mxGeometry>
        </mxCell>
        <mxCell id="z_wa0ut1sptJ0QLQxMaO-47" value="" style="endArrow=none;dashed=1;html=1;rounded=0;fillColor=#f8cecc;strokeColor=#b85450;entryX=0.433;entryY=1.133;entryDx=0;entryDy=0;entryPerimeter=0;" edge="1" parent="1" target="z_wa0ut1sptJ0QLQxMaO-35">
          <mxGeometry width="50" height="50" relative="1" as="geometry">
            <mxPoint x="478" y="630" as="sourcePoint" />
            <mxPoint x="619" y="620" as="targetPoint" />
          </mxGeometry>
        </mxCell>
        <mxCell id="z_wa0ut1sptJ0QLQxMaO-48" value="" style="endArrow=classic;html=1;rounded=0;fillColor=#f8cecc;strokeColor=#b85450;dashed=1;exitX=0.5;exitY=1;exitDx=0;exitDy=0;" edge="1" parent="1" source="z_wa0ut1sptJ0QLQxMaO-34" target="z_wa0ut1sptJ0QLQxMaO-35">
          <mxGeometry width="50" height="50" relative="1" as="geometry">
            <mxPoint x="719" y="262" as="sourcePoint" />
            <mxPoint x="713" y="359" as="targetPoint" />
          </mxGeometry>
        </mxCell>
        <mxCell id="z_wa0ut1sptJ0QLQxMaO-49" value="" style="endArrow=classic;html=1;rounded=0;fillColor=#f8cecc;strokeColor=#b85450;dashed=1;entryX=0.5;entryY=0.918;entryDx=0;entryDy=0;entryPerimeter=0;" edge="1" parent="1" target="z_wa0ut1sptJ0QLQxMaO-13">
          <mxGeometry width="50" height="50" relative="1" as="geometry">
            <mxPoint x="478" y="630" as="sourcePoint" />
            <mxPoint x="308" y="580" as="targetPoint" />
          </mxGeometry>
        </mxCell>
        <mxCell id="z_wa0ut1sptJ0QLQxMaO-51" value="&lt;div style=&quot;font-size: 14px;&quot; align=&quot;left&quot;&gt;&lt;font style=&quot;font-size: 14px;&quot; face=&quot;Times New Roman&quot;&gt;For client to get service provided in k8s cluster, the traffic has two trips: client --&amp;gt; LB VM --&amp;gt; worker. There are different choice for LB VM(haproxy)to implement the load balance service: make TCP connection or not.&lt;/font&gt;&lt;/div&gt;&lt;div style=&quot;font-size: 14px;&quot; align=&quot;left&quot;&gt;&lt;font style=&quot;font-size: 14px;&quot; face=&quot;IEp0vS3GPAHLPhfs-liF&quot;&gt;The solution need modifying routes in LB VM and/or worker. But to determine where we modify it would depend on whether there is TCP connection in two trips mentioned above.&lt;/font&gt;&lt;/div&gt;&lt;div style=&quot;font-size: 14px;&quot; align=&quot;left&quot;&gt;&lt;font style=&quot;font-size: 14px;&quot; face=&quot;IEp0vS3GPAHLPhfs-liF&quot;&gt;To determin how haproxy do load balancing: document research or analyse captured packet&lt;br&gt;&lt;/font&gt;&lt;/div&gt;" style="whiteSpace=wrap;html=1;" vertex="1" parent="1">
          <mxGeometry x="855" y="220" width="240" height="240" as="geometry" />
        </mxCell>
      </root>
    </mxGraphModel>
  </diagram>
</mxfile>
